<svg width="70" height="77" viewBox="0 0 70 77" fill="none" xmlns="http://www.w3.org/2000/svg">
<path d="M0 10.353C0 4.83018 4.47715 0.353027 10 0.353027H60C65.5229 0.353027 70 4.83018 70 10.353V66.353C70 71.8759 65.5229 76.353 60 76.353H10C4.47715 76.353 0 71.8759 0 66.353V10.353Z" fill="#F9FDFF"/>
<g clip-path="url(#clip0_110_711)">
<g clip-path="url(#clip1_110_711)">
<g clip-path="url(#clip2_110_711)">
<path d="M34.9909 26.5713C28.0159 20.4706 19.1472 25.8308 19.0018 33.0975C18.9647 34.9494 19.4993 36.7533 20.5634 38.4164H27.4607L28.6874 36.3716C29.0437 35.778 29.9057 35.7589 30.2821 36.3507L32.8705 40.4181L36.6435 32.453C36.9726 31.758 37.9532 31.7359 38.3161 32.4099L41.5503 38.4164H49.4184C55.2468 29.3071 43.7279 18.9297 34.9909 26.5713Z" fill="#0061FF"/>
<path d="M40.1651 39.7982L37.5443 34.931L33.8382 42.7547C33.5229 43.4204 32.5956 43.4782 32.2002 42.8567L29.5148 38.6369L28.7952 39.836C28.6258 40.1184 28.3207 40.2911 27.9914 40.2911H22.0464C22.2327 40.4862 21.2395 39.4949 34.3297 52.5173C34.6953 52.8811 35.2863 52.8812 35.652 52.5173C48.5407 39.6953 47.7493 40.4858 47.9353 40.2911H40.9904C40.6455 40.2912 40.3286 40.1018 40.1651 39.7982Z" fill="#0061FF"/>
</g>
</g>
</g>
<defs>
<clipPath id="clip0_110_711">
<rect width="32" height="32" fill="white" transform="translate(19 22.353)"/>
</clipPath>
<clipPath id="clip1_110_711">
<rect width="32" height="32" fill="white" transform="translate(19 22.353)"/>
</clipPath>
<clipPath id="clip2_110_711">
<rect width="32" height="28.8744" fill="white" transform="translate(19 23.9158)"/>
</clipPath>
</defs>
</svg>
