<svg width="70" height="77" viewBox="0 0 70 77" fill="none" xmlns="http://www.w3.org/2000/svg">
<path d="M0 10.353C0 4.83018 4.47715 0.353027 10 0.353027H60C65.5229 0.353027 70 4.83018 70 10.353V66.353C70 71.8759 65.5229 76.353 60 76.353H10C4.47715 76.353 0 71.8759 0 66.353V10.353Z" fill="#DDEEFE"/>
<g clip-path="url(#clip0_110_721)">
<g clip-path="url(#clip1_110_721)">
<g clip-path="url(#clip2_110_721)">
<g clip-path="url(#clip3_110_721)">
<path d="M29.6705 38.6879C30.0644 38.6063 30.4761 38.4276 30.8644 38.1472C31.981 37.3395 32.4766 36.0133 31.9702 35.1835C31.4196 34.2809 29.9134 34.3416 28.756 35.3688C27.6492 36.3245 27.4131 37.323 27.4131 38.3724C27.4131 39.1139 27.6503 40.4379 29.099 41.5877C29.7831 41.0592 30.5986 40.6244 31.5243 40.31L31.5365 40.3055C30.8253 40.0091 29.8981 39.4241 29.6705 38.6879ZM29.4918 36.1357C29.4918 35.8256 29.7389 35.5763 30.0436 35.5763C30.348 35.5763 30.5953 35.8268 30.5953 36.1369C30.5953 36.4469 30.348 36.6962 30.0436 36.6962C29.7389 36.6962 29.4918 36.4458 29.4918 36.1357Z" fill="#0061FF"/>
</g>
</g>
<g clip-path="url(#clip4_110_721)">
<g clip-path="url(#clip5_110_721)">
<path d="M42.607 38.3735C42.6036 37.323 42.3686 36.3244 41.2609 35.3688C40.1043 34.3426 38.5971 34.2797 38.0465 35.1835C37.5411 36.0133 38.0354 37.3396 39.152 38.1472C39.5405 38.4275 39.9521 38.6062 40.346 38.6879C40.2092 39.1303 39.7932 39.5805 39.1588 39.9601C38.2864 40.4808 37.8152 40.5452 32.2336 42.3987C30.1681 43.1004 28.939 44.4951 28.939 46.1293C28.939 47.2934 29.5336 48.1916 30.36 48.8493C30.8798 48.314 31.5287 47.8496 32.2867 47.4777C31.4139 47.0364 31.1446 46.702 31.1446 46.1293C31.1446 45.1841 33.0339 44.6437 33.9055 44.3561V46.7484L36.1123 45.7641V44.3572C36.9853 44.6463 38.8698 45.186 38.8698 46.1293C38.8698 47.6986 34.3762 48.624 32.4644 49.9427C31.5365 50.586 31.0375 51.4037 31.0375 52.3647C31.0375 52.9164 31.1017 53.6005 32.0704 54.2802C32.3451 54.4996 32.7267 54.1791 32.5483 53.8708C31.9082 52.5897 32.5879 51.9498 33.9076 51.3958V53.2473C33.9076 53.8564 34.402 54.3507 35.0111 54.3507C35.6201 54.3507 36.1145 53.8564 36.1145 53.2473V51.3969C37.3822 51.9288 38.1801 52.6802 37.4706 53.8708C37.2947 54.1732 37.6692 54.5023 37.9472 54.2802C38.8851 53.5695 38.9591 52.9604 38.9591 52.379C38.9591 51.4842 38.4692 50.6158 37.5401 49.9504C39.4182 49.2718 41.0798 48.1298 41.0798 46.1315C41.0798 44.7511 40.2028 43.5418 38.6866 42.776C39.3948 42.5211 39.7512 42.3501 40.2246 42.0677C42.298 40.8285 42.607 39.2209 42.607 38.3735ZM39.9743 36.6962C39.6696 36.6962 39.4226 36.4457 39.4226 36.1357C39.4226 35.8256 39.6696 35.5751 39.9743 35.5751C40.2787 35.5751 40.526 35.8256 40.526 36.1357C40.526 36.4457 40.2787 36.6962 39.9743 36.6962Z" fill="#0061FF"/>
</g>
</g>
<g clip-path="url(#clip6_110_721)">
<g clip-path="url(#clip7_110_721)">
<path d="M50.4477 24.562H42.891C41.4085 24.562 40.2961 25.2173 39.3391 26.1744C38.2994 27.214 37.7588 29.5252 36.1033 29.5252V26.4606C36.7603 26.0784 37.2067 25.3747 37.2067 24.5599C37.2067 23.3411 36.2188 22.353 34.9999 22.353C33.7811 22.353 32.7931 23.3411 32.7931 24.5599C32.7931 25.3747 33.2396 26.0783 33.8965 26.4606V39.6109C34.5775 39.3936 35.3249 39.1543 36.1033 38.9043V33.3772C36.5821 33.137 36.9683 32.7487 37.2052 32.2681C37.589 32.9241 38.3186 33.3893 39.1319 33.3893C39.9568 33.3893 40.6674 32.9313 41.0461 32.2611C42.3387 33.5538 44.7414 33.5787 46.034 32.286L44.1589 30.4109L45.0191 30.7672C46.7081 31.4669 48.6445 30.6648 49.3443 28.9757L46.6804 27.8723C49.261 27.8722 50.4477 26.2529 50.4477 24.562Z" fill="#0061FF"/>
</g>
</g>
<g clip-path="url(#clip8_110_721)">
<g clip-path="url(#clip9_110_721)">
<path d="M30.6607 26.1744C29.7037 25.2173 28.5913 24.562 27.1088 24.562H19.5521C19.5521 26.2529 20.7388 27.8722 23.3194 27.8722L20.6555 28.9757C21.3552 30.6647 23.2917 31.4668 24.9807 30.7672L25.8409 30.4109L23.9658 32.286C25.2584 33.5787 27.6611 33.5538 28.9538 32.261C29.3324 32.9313 30.043 33.3893 30.8679 33.3893C30.876 33.3893 30.8842 33.3892 30.8923 33.3892C31.9705 33.3769 32.7946 32.403 32.7946 31.3248V29.1049C31.9249 28.3913 31.4268 26.9404 30.6607 26.1744Z" fill="#0061FF"/>
</g>
</g>
</g>
</g>
<defs>
<clipPath id="clip0_110_721">
<rect width="32" height="32" fill="white" transform="translate(19 22.353)"/>
</clipPath>
<clipPath id="clip1_110_721">
<rect width="32" height="32" fill="white" transform="translate(19 22.353)"/>
</clipPath>
<clipPath id="clip2_110_721">
<rect width="4.75568" height="7.03818" fill="white" transform="translate(27.4131 34.5496)"/>
</clipPath>
<clipPath id="clip3_110_721">
<rect width="4.75568" height="7.03818" fill="white" transform="translate(27.4131 34.5496)"/>
</clipPath>
<clipPath id="clip4_110_721">
<rect width="13.668" height="19.8036" fill="white" transform="translate(28.939 34.5494)"/>
</clipPath>
<clipPath id="clip5_110_721">
<rect width="13.668" height="19.8036" fill="white" transform="translate(28.939 34.5494)"/>
</clipPath>
<clipPath id="clip6_110_721">
<rect width="17.6546" height="17.2579" fill="white" transform="translate(32.7931 22.353)"/>
</clipPath>
<clipPath id="clip7_110_721">
<rect width="17.6546" height="17.2579" fill="white" transform="translate(32.7931 22.353)"/>
</clipPath>
<clipPath id="clip8_110_721">
<rect width="13.2425" height="8.8273" fill="white" transform="translate(19.5521 24.562)"/>
</clipPath>
<clipPath id="clip9_110_721">
<rect width="13.2425" height="8.8273" fill="white" transform="translate(19.5521 24.562)"/>
</clipPath>
</defs>
</svg>
