<svg width="70" height="77" viewBox="0 0 70 77" fill="none" xmlns="http://www.w3.org/2000/svg">
<path d="M0 10.353C0 4.83018 4.47715 0.353027 10 0.353027H60C65.5229 0.353027 70 4.83018 70 10.353V66.353C70 71.8759 65.5229 76.353 60 76.353H10C4.47715 76.353 0 71.8759 0 66.353V10.353Z" fill="#B6D7FF"/>
<g clip-path="url(#clip0_110_741)">
<g clip-path="url(#clip1_110_741)">
<path d="M25.3484 54.353H44.6517C45.8003 54.353 46.7566 53.4745 46.7566 52.3949V28.9816C46.7566 27.9017 45.8003 27.0139 44.6517 27.0139H41.4696V28.8017C41.4742 29.112 41.2294 29.3688 40.9193 29.3791H29.043C28.7267 29.3715 28.4712 29.118 28.4609 28.8017V27.0139H25.3484C24.1998 27.0139 23.2435 27.9017 23.2435 28.9816V52.3949C23.2435 53.4745 24.1998 54.353 25.3484 54.353ZM29.6435 36.4052C29.6435 36.0979 29.8927 35.8487 30.2001 35.8487H33.0522V32.9965C33.0522 32.6892 33.3014 32.44 33.6087 32.44H36.3914C36.6987 32.44 36.9479 32.6892 36.9479 32.9965V35.8487H39.8001C40.1074 35.8487 40.3566 36.0979 40.3566 36.4052V39.1878C40.3566 39.4952 40.1074 39.7444 39.8001 39.7444H36.9479V42.5965C36.9479 42.9039 36.6987 43.153 36.3914 43.153H33.6087C33.3014 43.153 33.0522 42.9039 33.0522 42.5965V39.7444H30.2001C29.8927 39.7444 29.6435 39.4952 29.6435 39.1878V36.4052ZM29.8702 46.0052H40.1299C40.4376 46.0052 40.6865 46.2544 40.6865 46.5617C40.6865 46.8691 40.4376 47.1183 40.1299 47.1183H29.8702C29.5626 47.1183 29.3136 46.8691 29.3136 46.5617C29.3136 46.2544 29.5626 46.0052 29.8702 46.0052ZM27.7832 48.7878H42.2169C42.5245 48.7878 42.7734 49.037 42.7734 49.3443C42.7734 49.6517 42.5245 49.9009 42.2169 49.9009H27.7832C27.4756 49.9009 27.2267 49.6517 27.2267 49.3443C27.2267 49.037 27.4756 48.7878 27.7832 48.7878Z" fill="#0061FF"/>
<path d="M40.3565 24.5096H37.7521C37.4902 24.5093 37.2635 24.3264 37.2084 24.0701C36.9931 23.0756 36.0486 22.353 34.9622 22.353H34.9554C33.898 22.3519 32.9744 23.0674 32.7114 24.0913C32.648 24.3373 32.4263 24.5093 32.1722 24.5096H29.5739V28.2661H40.3565V24.5096Z" fill="#0061FF"/>
<path d="M34.1652 39.1878V42.04H35.8347V39.1878C35.8347 38.8805 36.0839 38.6313 36.3913 38.6313H39.2434V36.9617H36.3913C36.0839 36.9617 35.8347 36.7126 35.8347 36.4052V33.553H34.1652V36.4052C34.1652 36.7126 33.916 36.9617 33.6086 36.9617H30.7565V38.6313H33.6086C33.916 38.6313 34.1652 38.8805 34.1652 39.1878Z" fill="#0061FF"/>
</g>
</g>
<defs>
<clipPath id="clip0_110_741">
<rect width="32" height="32" fill="white" transform="translate(19 22.353)"/>
</clipPath>
<clipPath id="clip1_110_741">
<rect width="32" height="32" fill="white" transform="translate(19 22.353)"/>
</clipPath>
</defs>
</svg>
