<svg width="1440" height="759" viewBox="0 0 1440 759" fill="none" xmlns="http://www.w3.org/2000/svg">
<path d="M0 0H1440V437H0V0ZM0 689L21.6 671C43.2 653 87.6 617 130.8 635C174 653 218.4 725 261.6 749C306 773 349.2 749 392.4 719C436.8 689 480 653 523.2 617C567.6 581 610.8 545 654 521C698.4 497 741.6 485 786 521C829.2 557 872.4 641 916.8 653C960 665 1003.2 605 1047.6 605C1090.8 605 1134 665 1178.4 689C1221.6 713 1266 701 1309.2 653C1352.4 605 1396.8 521 1418.4 479L1440 437H1418.4C1396.8 437 1352.4 437 1309.2 437C1266 437 1221.6 437 1178.4 437C1134 437 1090.8 437 1047.6 437C1003.2 437 960 437 916.8 437C872.4 437 829.2 437 786 437C741.6 437 698.4 437 654 437C610.8 437 567.6 437 523.2 437C480 437 436.8 437 392.4 437C349.2 437 306 437 261.6 437C218.4 437 174 437 130.8 437C87.6 437 43.2 437 21.6 437H0V689Z" fill="#0061FF"/>
<path fill-rule="evenodd" clip-rule="evenodd" d="M0 0H1440V437H0V0ZM0 689L21.6 671C43.2 653 87.6 617 130.8 635C174 653 218.4 725 261.6 749C306 773 349.2 749 392.4 719C436.8 689 480 653 523.2 617C567.6 581 610.8 545 654 521C698.4 497 741.6 485 786 521C829.2 557 872.4 641 916.8 653C960 665 1003.2 605 1047.6 605C1090.8 605 1134 665 1178.4 689C1221.6 713 1266 701 1309.2 653C1352.4 605 1396.8 521 1418.4 479L1440 437H1418.4C1396.8 437 1352.4 437 1309.2 437C1266 437 1221.6 437 1178.4 437C1134 437 1090.8 437 1047.6 437C1003.2 437 960 437 916.8 437C872.4 437 829.2 437 786 437C741.6 437 698.4 437 654 437C610.8 437 567.6 437 523.2 437C480 437 436.8 437 392.4 437C349.2 437 306 437 261.6 437C218.4 437 174 437 130.8 437C87.6 437 43.2 437 21.6 437H0V689Z" fill="#0061FF"/>
</svg>
