<svg width="77" height="73" viewBox="0 0 77 73" fill="none" xmlns="http://www.w3.org/2000/svg">
<g clip-path="url(#clip0_110_695)">
<path d="M67.9261 28.1615C65.5311 28.1615 63.4236 29.1557 61.8748 30.7111C56.1748 26.7503 48.495 24.2007 39.9849 23.9281L44.4076 3.91559L58.49 7.09064C58.49 10.5543 61.3 13.3766 64.7488 13.3766C68.2614 13.3766 71.0874 10.4742 71.0874 7.01046C71.0874 3.54677 68.2774 0.644318 64.7488 0.644318C62.29 0.644318 60.1664 2.13563 59.1126 4.17216L43.5614 0.70846C42.779 0.499997 42.0126 1.06124 41.8051 1.84699L36.9513 23.912C28.5051 24.2648 20.9051 26.8145 15.1891 30.7753C13.6404 29.1557 11.453 28.1615 9.05802 28.1615C0.180712 28.1615 -2.72517 40.124 5.40172 44.2131C5.11433 45.4799 4.98659 46.8269 4.98659 48.1739C4.98659 61.6118 20.0589 72.5 38.5639 72.5C57.1488 72.5 72.221 61.6118 72.221 48.1739C72.221 46.8269 72.0773 45.4158 71.7261 44.149C79.6933 40.0439 76.7555 28.1615 67.9261 28.1615V28.1615ZM18.2866 45.063C18.2866 41.5352 21.0967 38.6969 24.6253 38.6969C28.074 38.6969 30.8841 41.5191 30.8841 45.063C30.8841 48.5267 28.074 51.349 24.6253 51.349C21.1126 51.365 18.2866 48.5267 18.2866 45.063V45.063ZM52.5026 60.0563C46.6908 65.8933 30.2933 65.8933 24.4816 60.0563C23.8429 59.4951 23.8429 58.5009 24.4816 57.8595C25.0404 57.2982 26.0303 57.2982 26.5891 57.8595C31.0278 62.4296 45.7488 62.5098 50.379 57.8595C50.9379 57.2982 51.9278 57.2982 52.4866 57.8595C53.1412 58.5009 53.1412 59.4951 52.5026 60.0563ZM52.3748 51.365C48.9261 51.365 46.116 48.5428 46.116 45.0791C46.116 41.5512 48.9261 38.7129 52.3748 38.7129C55.8874 38.7129 58.7135 41.5352 58.7135 45.0791C58.6975 48.5267 55.8874 51.365 52.3748 51.365Z" fill="#737373"/>
</g>
<defs>
<clipPath id="clip0_110_695">
<rect width="76" height="72" fill="white" transform="translate(0.5 0.5)"/>
</clipPath>
</defs>
</svg>
